<mxfile host="65bd71144e">
    <diagram id="_qYy_YDmPthP_Fgu3tGh" name="페이지-1">
        <mxGraphModel dx="828" dy="838" grid="1" gridSize="10" guides="1" tooltips="1" connect="1" arrows="1" fold="1" page="1" pageScale="1" pageWidth="827" pageHeight="1169" math="0" shadow="0">
            <root>
                <mxCell id="0"/>
                <mxCell id="1" parent="0"/>
                <mxCell id="68" value="API" style="shape=umlLifeline;perimeter=lifelinePerimeter;whiteSpace=wrap;html=1;container=1;collapsible=0;recursiveResize=0;outlineConnect=0;" parent="1" vertex="1">
                    <mxGeometry x="90" y="180" width="100" height="580" as="geometry"/>
                </mxCell>
                <mxCell id="145" value="" style="html=1;points=[];perimeter=orthogonalPerimeter;" vertex="1" parent="68">
                    <mxGeometry x="45" y="60" width="10" height="210" as="geometry"/>
                </mxCell>
                <mxCell id="73" value="Service" style="shape=umlLifeline;perimeter=lifelinePerimeter;whiteSpace=wrap;html=1;container=1;collapsible=0;recursiveResize=0;outlineConnect=0;movable=1;resizable=1;rotatable=1;deletable=1;editable=1;connectable=1;" parent="1" vertex="1">
                    <mxGeometry x="240" y="180" width="142" height="580" as="geometry"/>
                </mxCell>
                <mxCell id="149" value="" style="html=1;points=[];perimeter=orthogonalPerimeter;" vertex="1" parent="73">
                    <mxGeometry x="66" y="50" width="10" height="210" as="geometry"/>
                </mxCell>
                <mxCell id="83" value="Repository" style="shape=umlLifeline;perimeter=lifelinePerimeter;whiteSpace=wrap;html=1;container=1;collapsible=0;recursiveResize=0;outlineConnect=0;" parent="1" vertex="1">
                    <mxGeometry x="470" y="180" width="160" height="580" as="geometry"/>
                </mxCell>
                <mxCell id="148" value="read from cache" style="html=1;verticalAlign=bottom;endArrow=block;exitX=1.05;exitY=0.248;exitDx=0;exitDy=0;exitPerimeter=0;" edge="1" parent="83" source="149">
                    <mxGeometry width="80" relative="1" as="geometry">
                        <mxPoint x="-163" y="102.27999999999975" as="sourcePoint"/>
                        <mxPoint x="-55" y="100" as="targetPoint"/>
                    </mxGeometry>
                </mxCell>
                <mxCell id="150" value="" style="endArrow=classic;html=1;" edge="1" parent="83">
                    <mxGeometry width="50" height="50" relative="1" as="geometry">
                        <mxPoint x="-75" y="120" as="sourcePoint"/>
                        <mxPoint x="-153" y="120" as="targetPoint"/>
                        <Array as="points">
                            <mxPoint x="-119.25" y="120"/>
                        </Array>
                    </mxGeometry>
                </mxCell>
                <mxCell id="151" value="return if exists" style="edgeLabel;html=1;align=center;verticalAlign=middle;resizable=0;points=[];" vertex="1" connectable="0" parent="150">
                    <mxGeometry x="0.3979" y="4" relative="1" as="geometry">
                        <mxPoint x="25" y="-14" as="offset"/>
                    </mxGeometry>
                </mxCell>
                <mxCell id="152" value="" style="endArrow=classic;html=1;" edge="1" parent="83" source="83">
                    <mxGeometry width="50" height="50" relative="1" as="geometry">
                        <mxPoint x="50.25" y="200" as="sourcePoint"/>
                        <mxPoint x="-153" y="200" as="targetPoint"/>
                        <Array as="points">
                            <mxPoint x="-19.25" y="200"/>
                            <mxPoint x="-119.25" y="200"/>
                        </Array>
                    </mxGeometry>
                </mxCell>
                <mxCell id="153" value="return product" style="edgeLabel;html=1;align=center;verticalAlign=middle;resizable=0;points=[];" vertex="1" connectable="0" parent="152">
                    <mxGeometry x="0.3979" y="4" relative="1" as="geometry">
                        <mxPoint x="37" y="-14" as="offset"/>
                    </mxGeometry>
                </mxCell>
                <mxCell id="154" value="" style="outlineConnect=0;dashed=0;verticalLabelPosition=bottom;verticalAlign=top;align=center;html=1;shape=mxgraph.aws3.mysql_db_instance_2;fillColor=#2E73B8;gradientColor=none;" vertex="1" parent="83">
                    <mxGeometry x="55" y="110" width="50" height="53" as="geometry"/>
                </mxCell>
                <mxCell id="155" value="read product" style="html=1;verticalAlign=bottom;endArrow=block;" edge="1" parent="83">
                    <mxGeometry x="-0.0258" width="80" relative="1" as="geometry">
                        <mxPoint x="-314.9999999999999" y="80" as="sourcePoint"/>
                        <mxPoint x="-165" y="80" as="targetPoint"/>
                        <mxPoint as="offset"/>
                    </mxGeometry>
                </mxCell>
                <mxCell id="156" value="" style="sketch=0;aspect=fixed;html=1;points=[];align=center;image;fontSize=12;image=img/lib/mscae/Cache_Redis_Product.svg;" vertex="1" parent="83">
                    <mxGeometry x="-55" y="80" width="50" height="42" as="geometry"/>
                </mxCell>
                <mxCell id="157" value="if not cached, read product" style="html=1;verticalAlign=bottom;endArrow=block;" edge="1" parent="83" target="83">
                    <mxGeometry width="80" relative="1" as="geometry">
                        <mxPoint x="-155" y="180" as="sourcePoint"/>
                        <mxPoint x="45" y="180" as="targetPoint"/>
                    </mxGeometry>
                </mxCell>
                <mxCell id="172" value="Analyse Server" style="shape=umlLifeline;perimeter=lifelinePerimeter;whiteSpace=wrap;html=1;container=1;collapsible=0;recursiveResize=0;outlineConnect=0;" vertex="1" parent="1">
                    <mxGeometry x="768.58" y="180" width="100" height="580" as="geometry"/>
                </mxCell>
                <mxCell id="174" value="Repository" style="shape=umlLifeline;perimeter=lifelinePerimeter;whiteSpace=wrap;html=1;container=1;collapsible=0;recursiveResize=0;outlineConnect=0;" vertex="1" parent="1">
                    <mxGeometry x="988.58" y="180" width="100" height="580" as="geometry"/>
                </mxCell>
                <mxCell id="74" value="" style="html=1;points=[];perimeter=orthogonalPerimeter;" parent="174" vertex="1">
                    <mxGeometry x="-171" y="120" width="10" height="180" as="geometry"/>
                </mxCell>
                <mxCell id="112" value="" style="aspect=fixed;html=1;points=[];align=center;image;fontSize=12;image=img/lib/azure2/compute/Batch_Accounts.svg;labelBackgroundColor=#000000;fillColor=#FFFFFF;" parent="174" vertex="1">
                    <mxGeometry x="-180" y="78.59000000000003" width="44" height="41.41" as="geometry"/>
                </mxCell>
                <mxCell id="85" value="" style="sketch=0;aspect=fixed;html=1;points=[];align=center;image;fontSize=12;image=img/lib/mscae/Cache_Redis_Product.svg;" parent="174" vertex="1">
                    <mxGeometry x="30" y="193" width="50" height="42" as="geometry"/>
                </mxCell>
                <mxCell id="92" value="save top-n most searched products" style="html=1;verticalAlign=bottom;endArrow=block;dashed=1;" parent="174" edge="1">
                    <mxGeometry width="80" relative="1" as="geometry">
                        <mxPoint x="-165" y="243" as="sourcePoint"/>
                        <mxPoint x="54.5" y="243" as="targetPoint"/>
                    </mxGeometry>
                </mxCell>
                <mxCell id="93" value="return success" style="html=1;verticalAlign=bottom;endArrow=block;dashed=1;" parent="174" edge="1">
                    <mxGeometry x="0.0001" width="80" relative="1" as="geometry">
                        <mxPoint x="54.5" y="273" as="sourcePoint"/>
                        <mxPoint x="-164.67647058823536" y="273" as="targetPoint"/>
                        <mxPoint as="offset"/>
                        <Array as="points">
                            <mxPoint x="-105" y="273"/>
                        </Array>
                    </mxGeometry>
                </mxCell>
                <mxCell id="146" value="" style="endArrow=classic;html=1;entryX=0.975;entryY=0.613;entryDx=0;entryDy=0;entryPerimeter=0;" edge="1" parent="1">
                    <mxGeometry width="50" height="50" relative="1" as="geometry">
                        <mxPoint x="311.75" y="430.0049999999999" as="sourcePoint"/>
                        <mxPoint x="150.0000000000001" y="430.0049999999999" as="targetPoint"/>
                    </mxGeometry>
                </mxCell>
                <mxCell id="147" value="return product" style="edgeLabel;html=1;align=center;verticalAlign=middle;resizable=0;points=[];" vertex="1" connectable="0" parent="146">
                    <mxGeometry x="0.2246" y="-4" relative="1" as="geometry">
                        <mxPoint x="18" y="-6" as="offset"/>
                    </mxGeometry>
                </mxCell>
                <mxCell id="188" value="" style="endArrow=classic;html=1;" edge="1" parent="1" target="83">
                    <mxGeometry width="50" height="50" relative="1" as="geometry">
                        <mxPoint x="320" y="410" as="sourcePoint"/>
                        <mxPoint x="520" y="530" as="targetPoint"/>
                        <Array as="points">
                            <mxPoint x="460" y="410"/>
                        </Array>
                    </mxGeometry>
                </mxCell>
                <mxCell id="189" value="tag: product_view_count&amp;nbsp;&lt;br&gt;{product_id: view_count+1}" style="edgeLabel;html=1;align=center;verticalAlign=middle;resizable=0;points=[];" vertex="1" connectable="0" parent="188">
                    <mxGeometry x="-0.2281" y="1" relative="1" as="geometry">
                        <mxPoint x="13" y="1" as="offset"/>
                    </mxGeometry>
                </mxCell>
                <mxCell id="144" value="" style="verticalLabelPosition=bottom;html=1;verticalAlign=top;align=center;strokeColor=none;fillColor=#00BEF2;shape=mxgraph.azure.queue_generic;pointerEvents=1;" vertex="1" parent="1">
                    <mxGeometry x="570" y="380" width="110" height="60" as="geometry"/>
                </mxCell>
                <mxCell id="191" value="" style="endArrow=classic;html=1;exitX=1;exitY=0.51;exitDx=0;exitDy=0;exitPerimeter=0;entryX=-0.191;entryY=0.098;entryDx=0;entryDy=0;entryPerimeter=0;" edge="1" parent="1" source="144" target="74">
                    <mxGeometry width="50" height="50" relative="1" as="geometry">
                        <mxPoint x="580" y="580" as="sourcePoint"/>
                        <mxPoint x="630" y="530" as="targetPoint"/>
                        <Array as="points">
                            <mxPoint x="740" y="411"/>
                            <mxPoint x="740" y="318"/>
                        </Array>
                    </mxGeometry>
                </mxCell>
                <mxCell id="192" value="subscribe product_view_count tag" style="edgeLabel;html=1;align=center;verticalAlign=middle;resizable=0;points=[];" vertex="1" connectable="0" parent="191">
                    <mxGeometry x="0.5481" relative="1" as="geometry">
                        <mxPoint x="-44" y="-18" as="offset"/>
                    </mxGeometry>
                </mxCell>
                <mxCell id="143" value="batch&amp;nbsp;&lt;br&gt;every 20m" style="ellipse;shape=cloud;whiteSpace=wrap;html=1;" vertex="1" parent="1">
                    <mxGeometry x="840" y="220" width="100" height="61.41" as="geometry"/>
                </mxCell>
                <mxCell id="193" value="1. sort product by view_count&lt;br&gt;2. analyze user behavior" style="endArrow=classic;html=1;dashed=1;" edge="1" parent="1" source="74" target="172">
                    <mxGeometry x="-0.0753" y="50" width="50" height="50" relative="1" as="geometry">
                        <mxPoint x="580" y="580" as="sourcePoint"/>
                        <mxPoint x="930" y="480" as="targetPoint"/>
                        <Array as="points">
                            <mxPoint x="830" y="350"/>
                            <mxPoint x="870" y="350"/>
                            <mxPoint x="870" y="390"/>
                        </Array>
                        <mxPoint y="1" as="offset"/>
                    </mxGeometry>
                </mxCell>
            </root>
        </mxGraphModel>
    </diagram>
</mxfile>